<svg width="49" height="57" viewBox="0 0 49 57" fill="none" xmlns="http://www.w3.org/2000/svg">
<path d="M35.9747 48.5483C34.1108 50.4633 31.7315 51.7966 29.1251 52.3867C26.5188 52.9767 23.7972 52.7982 21.2903 51.8727C20.8713 51.7182 20.4887 51.4787 20.1665 51.1694C19.8444 50.86 19.5897 50.4875 19.4183 50.075C16.0453 42.9999 11.3329 34.294 11.7265 17.1959L31.0781 18.7818C34.0102 28.3477 35.3301 36.2881 36.8614 45.9753C36.9328 46.4439 36.8893 46.9229 36.7349 47.371C36.5804 47.8192 36.3196 48.2231 35.9747 48.5483V48.5483Z" fill="#F0D5A8" stroke="#45413C" stroke-width="1.25" stroke-linecap="round" stroke-linejoin="round"/>
<path d="M37.5472 46.8753C34.678 49.6867 27.4269 47.3513 23.1585 45.6094C22.2212 45.2251 21.4545 44.515 20.9995 43.61C20.5445 42.705 20.4319 41.666 20.6824 40.6845C22.1384 34.937 25.5735 23.4298 31.0267 17.2015C34.7616 25.5811 36.839 34.5659 38.3687 44.2026C38.4534 44.6814 38.4231 45.1734 38.2802 45.6381C38.1374 46.1028 37.8861 46.5268 37.5472 46.8753V46.8753Z" fill="#F7E5C6"/>
<path d="M34.9228 45.2638C35.0082 45.7432 34.9782 46.236 34.8353 46.7015C34.6924 47.1669 34.4408 47.5917 34.1011 47.9406C34.0041 48.0262 33.9028 48.1067 33.7977 48.1821C35.1665 48.233 36.5046 47.7681 37.547 46.8795C37.8866 46.5305 38.1383 46.1058 38.2812 45.6403C38.424 45.1748 38.4541 44.682 38.3687 44.2026C36.84 34.5662 34.7626 25.5813 31.0277 17.2018C30.1172 18.2645 29.2917 19.3972 28.5588 20.5893C31.6133 28.5448 33.7485 36.8234 34.9228 45.2638V45.2638Z" fill="#FFF5E3"/>
<path d="M37.5472 46.8753C34.678 49.6867 27.4269 47.3513 23.1585 45.6094C22.2212 45.2251 21.4545 44.515 20.9995 43.61C20.5445 42.705 20.4319 41.666 20.6824 40.6845C22.1384 34.937 25.5735 23.4298 31.0267 17.2015C34.7616 25.5811 36.839 34.5659 38.3687 44.2026C38.4534 44.6814 38.4231 45.1734 38.2802 45.6381C38.1374 46.1028 37.8861 46.5268 37.5472 46.8753V46.8753Z" stroke="#45413C" stroke-width="1.25" stroke-linecap="round" stroke-linejoin="round"/>
<path d="M28.9676 13.2C32.7523 18.6041 31.5557 23.8904 27.5013 26.7298C23.4469 29.5693 18.0713 28.8865 14.2859 23.4812C10.5005 18.0758 10.719 11.3925 14.7722 8.55369C18.8253 5.7149 25.1822 7.7946 28.9676 13.2Z" fill="#DEBB7E"/>
<path d="M17.8895 19.8043C18.8461 20.0903 19.8659 20.0875 20.821 19.7962C21.776 19.5049 22.6238 18.938 23.258 18.1668C23.8921 17.3955 24.2844 16.4541 24.3857 15.4608C24.4869 14.4674 24.2926 13.4663 23.827 12.583C24.227 12.2176 24.5208 11.751 24.6776 11.2325C24.9079 10.4584 24.8214 9.62461 24.437 8.91439C24.0525 8.20418 23.4017 7.67577 22.6277 7.4454C22.1241 7.29877 21.5909 7.28611 21.0809 7.40866C20.9252 6.84653 20.6106 6.34132 20.1747 5.95376C19.7388 5.5662 19.2002 5.31279 18.6237 5.22398C18.0472 5.13517 17.4574 5.21476 16.9251 5.45316C16.3927 5.69156 15.9406 6.07864 15.623 6.56786C15.1657 6.56355 14.7135 6.66364 14.3008 6.86052C13.8881 7.0574 13.5257 7.34588 13.2414 7.70397C12.957 8.06207 12.7581 8.48034 12.6598 8.92692C12.5616 9.37351 12.5665 9.83663 12.6743 10.281C12.2852 10.39 11.9217 10.5753 11.6051 10.8262C11.2884 11.0772 11.0249 11.3887 10.8299 11.7426C10.635 12.0965 10.5125 12.4857 10.4696 12.8875C10.4267 13.2892 10.4643 13.6955 10.5801 14.0826C10.696 14.4697 10.8878 14.8298 11.1443 15.1419C11.4009 15.4541 11.7171 15.712 12.0744 15.9006C12.4317 16.0892 12.823 16.2047 13.2255 16.2405C13.6279 16.2762 14.0335 16.2314 14.4184 16.1087C14.6203 16.9758 15.0476 17.7742 15.6571 18.4231C16.2666 19.0721 17.0367 19.5485 17.8895 19.8043V19.8043Z" fill="#915E3A" stroke="#45413C" stroke-width="1.25" stroke-linecap="round" stroke-linejoin="round"/>
<path d="M18.5396 25.7216C19.5331 25.8209 20.5338 25.6246 21.4161 25.1574C22.2985 24.6903 23.0233 23.973 23.4996 23.0955C23.976 22.218 24.1826 21.2194 24.0936 20.2249C24.0047 19.2305 23.6241 18.2844 22.9995 17.5054C23.3228 17.0706 23.523 16.5568 23.5789 16.0179C23.658 15.2141 23.4147 14.4119 22.9024 13.7875C22.3902 13.1631 21.6509 12.7678 20.8472 12.6883C20.3248 12.6396 19.7988 12.7283 19.3213 12.9458C19.062 12.4234 18.6573 11.987 18.1559 11.6892C17.6545 11.3913 17.0777 11.2447 16.4949 11.2669C15.9121 11.289 15.3481 11.4791 14.8708 11.8142C14.3935 12.1493 14.0231 12.6152 13.8042 13.1558C13.1627 13.2792 12.5781 13.6062 12.1373 14.0884C11.6964 14.5705 11.4229 15.182 11.3572 15.8319C11.3084 16.354 11.3972 16.8798 11.6149 17.3568C11.2517 17.5364 10.928 17.7868 10.6628 18.0932C10.3976 18.3996 10.1964 18.7559 10.0708 19.1412C9.94527 19.5265 9.89796 19.933 9.93167 20.3368C9.96538 20.7406 10.0794 21.1336 10.2671 21.4928C10.4548 21.8519 10.7124 22.1699 11.0247 22.4281C11.337 22.6864 11.6977 22.8796 12.0858 22.9965C12.4738 23.1133 12.8812 23.1515 13.2842 23.1087C13.6871 23.066 14.0775 22.9431 14.4323 22.7474C14.7942 23.5611 15.3647 24.2646 16.0859 24.7869C16.8072 25.3092 17.6536 25.6316 18.5396 25.7216V25.7216Z" fill="#BF8256" stroke="#45413C" stroke-width="1.25" stroke-linecap="round" stroke-linejoin="round"/>
<path d="M23.2147 18.5001C23.2138 18.4435 23.2158 18.3878 23.22 18.3317L24.0953 6.32134C24.1144 6.05938 24.1849 5.80374 24.3029 5.56903C24.4208 5.33432 24.5838 5.12513 24.7825 4.95341C24.9813 4.78169 25.2119 4.6508 25.4612 4.56821C25.7106 4.48562 25.9738 4.45295 26.2357 4.47207C26.4977 4.49119 26.7533 4.56171 26.988 4.67963C27.2228 4.79754 27.4319 4.96053 27.6037 5.15929C27.7754 5.35804 27.9063 5.58868 27.9889 5.83802C28.0715 6.08736 28.1041 6.35053 28.085 6.6125L27.209 18.6216C27.1708 19.1354 26.9358 19.6147 26.5529 19.9595C26.17 20.3043 25.6688 20.488 25.1538 20.4724C24.6387 20.4567 24.1496 20.2429 23.7884 19.8755C23.4271 19.508 23.2216 19.0154 23.2147 18.5001V18.5001Z" fill="#FFDF3D" stroke="#45413C" stroke-width="1.25" stroke-linecap="round" stroke-linejoin="round"/>
<path d="M19.9193 24.5108C19.8812 24.4703 19.8397 24.4277 19.8088 24.3841L12.3057 14.9655C12.1413 14.7601 12.0191 14.5244 11.946 14.2717C11.8728 14.019 11.8503 13.7544 11.8796 13.493C11.9089 13.2315 11.9894 12.9785 12.1167 12.7482C12.2439 12.518 12.4153 12.3151 12.6211 12.1513C12.8269 11.9874 13.0629 11.8657 13.3158 11.7932C13.5687 11.7207 13.8333 11.6987 14.0947 11.7287C14.356 11.7586 14.6089 11.8398 14.8388 11.9676C15.0687 12.0954 15.2712 12.2673 15.4346 12.4735L22.9367 21.8917C23.2551 22.2954 23.4058 22.8063 23.3575 23.3182C23.3092 23.8301 23.0657 24.3037 22.6774 24.6407C22.2891 24.9777 21.7859 25.1523 21.2723 25.1281C20.7587 25.1039 20.2742 24.8829 19.9193 24.5108Z" fill="#FF6242" stroke="#45413C" stroke-width="1.25" stroke-linecap="round" stroke-linejoin="round"/>
<path d="M25.7758 23.5672C26.0908 23.9724 26.5034 24.2911 26.9752 24.4933C27.4469 24.6956 27.9622 24.7748 28.4729 24.7236C28.9148 24.6798 30.5626 24.682 31.145 21.095C31.0484 20.5972 30.8282 20.1316 30.5046 19.7411C31.0895 19.3229 31.5785 18.7849 31.9393 18.163C32.3 17.541 32.5241 16.8494 32.5967 16.134C32.6693 15.4187 32.5888 14.6961 32.3604 14.0144C32.132 13.3326 31.761 12.7073 31.2721 12.1801C30.7832 11.6529 30.1876 11.2359 29.525 10.9568C28.8624 10.6777 28.1479 10.5429 27.4292 10.5614C26.7104 10.5799 26.0039 10.7513 25.3565 11.0642C24.7091 11.3771 24.1358 11.8242 23.6748 12.3759C23.1848 12.1449 22.6417 12.0503 22.1026 12.1021C21.7046 12.1419 21.3185 12.2598 20.9661 12.449C20.6138 12.6381 20.3022 12.8948 20.0491 13.2045C19.796 13.5141 19.6064 13.8706 19.4911 14.2535C19.3758 14.6364 19.3372 15.0383 19.3773 15.4362C19.4323 15.958 19.6233 16.4563 19.9311 16.8812C19.4702 17.2387 19.1224 17.7216 18.9294 18.272C18.7364 18.8224 18.7064 19.4168 18.8431 19.9838C18.9799 20.5508 19.2774 21.0662 19.7001 21.4682C20.1227 21.8701 20.6524 22.1414 21.2256 22.2495C21.3955 22.6735 21.6598 23.0531 21.9984 23.3597C22.337 23.6662 22.741 23.8915 23.1797 24.0186C23.6184 24.1456 24.0803 24.171 24.5303 24.0929C24.9803 24.0147 25.4065 23.835 25.7767 23.5675L25.7758 23.5672Z" fill="#46B000" stroke="#45413C" stroke-width="1.25" stroke-linecap="round" stroke-linejoin="round"/>
<path d="M21.6617 21.8535C21.6836 21.8183 21.7065 21.7833 21.7314 21.749L27.0404 14.4658C27.1504 14.2928 27.2947 14.1442 27.4644 14.0291C27.634 13.914 27.8255 13.835 28.0269 13.7968C28.2283 13.7586 28.4355 13.7621 28.6355 13.8071C28.8355 13.8521 29.0241 13.9376 29.1898 14.0583C29.3555 14.1791 29.4947 14.3325 29.5987 14.5091C29.7028 14.6858 29.7695 14.8819 29.7948 15.0853C29.8202 15.2888 29.8035 15.4952 29.7459 15.692C29.6883 15.8887 29.591 16.0716 29.46 16.2292L24.1509 23.5124C23.9179 23.8103 23.581 24.0092 23.2077 24.0693C22.8344 24.1294 22.4521 24.0462 22.1374 23.8365C21.8228 23.6268 21.5989 23.306 21.5107 22.9383C21.4225 22.5706 21.4764 22.1831 21.6617 21.8535V21.8535Z" fill="#FFDF3D" stroke="#45413C" stroke-width="1.25" stroke-linecap="round" stroke-linejoin="round"/>
<path d="M20.7963 22.8855C20.7797 22.8326 20.7644 22.779 20.7518 22.7231L18.0517 10.9893C17.9906 10.7327 17.981 10.4664 18.0233 10.206C18.0656 9.94557 18.159 9.69608 18.2982 9.47192C18.4374 9.24775 18.6195 9.05333 18.8341 8.89986C19.0487 8.74639 19.2916 8.63691 19.5487 8.57771C19.8058 8.51852 20.0721 8.51078 20.3322 8.55495C20.5924 8.59912 20.8412 8.69432 21.0643 8.83508C21.2875 8.97583 21.4806 9.15934 21.6326 9.37506C21.7845 9.59077 21.8922 9.83441 21.9496 10.0919L24.6495 21.8266C24.7635 22.3287 24.6795 22.8555 24.415 23.2973C24.1504 23.739 23.7256 24.0617 23.2291 24.1982C22.7326 24.3346 22.2026 24.2743 21.7494 24.0298C21.2963 23.7853 20.9549 23.3754 20.7963 22.8855V22.8855Z" fill="#FFFCE5" stroke="#45413C" stroke-width="1.25" stroke-linecap="round" stroke-linejoin="round"/>
<path d="M14.3438 23.5568C18.1258 28.8892 23.4679 29.5547 27.5013 26.7298C27.9807 26.3957 28.4281 26.0179 28.8378 25.6012C28.9872 25.4479 29.0786 25.2473 29.0962 25.034C29.1138 24.8206 29.0565 24.6078 28.9343 24.4321C28.6023 24.0126 28.1401 23.7154 27.6207 23.5873C27.9118 22.867 28.0461 22.093 28.0145 21.3167C27.9829 20.5405 27.7862 19.7799 27.4375 19.0857C27.0889 18.3914 26.5962 17.7795 25.9924 17.2906C25.3886 16.8018 24.6875 16.4473 23.9359 16.2507C23.1843 16.0542 22.3994 16.0201 21.6336 16.1508C20.8678 16.2815 20.1386 16.5739 19.4947 17.0086C18.8508 17.4432 18.307 18.0102 17.8994 18.6716C17.4919 19.333 17.23 20.0737 17.1313 20.8443C16.4344 20.9308 15.7849 21.2426 15.2814 21.7321C14.7779 22.2216 14.448 22.8621 14.3418 23.5562L14.3438 23.5568Z" fill="#6DD627"/>
<path d="M25.563 20.3978C26.4412 21.1425 27.1005 22.1119 27.4702 23.2024C27.5722 23.1576 27.6755 23.1122 27.7848 23.0675C27.9961 22.3565 28.0602 21.6098 27.9731 20.8731C27.886 20.1365 27.6495 19.4253 27.2781 18.7832C26.9068 18.141 26.4083 17.5814 25.8132 17.1385C25.2182 16.6956 24.539 16.3787 23.8173 16.2073C23.0956 16.0359 22.3465 16.0134 21.6159 16.1414C20.8852 16.2694 20.1883 16.5451 19.5678 16.9516C18.9474 17.3581 18.4163 17.8869 18.0072 18.5057C17.5981 19.1245 17.3196 19.8202 17.1886 20.5504C17.6652 20.117 18.2029 19.7561 18.7844 19.4791C19.8842 18.9693 21.1068 18.7849 22.308 18.9477C23.5092 19.1105 24.6386 19.6137 25.563 20.3978V20.3978Z" fill="#9CEB60"/>
<path d="M14.3438 23.5568C18.1258 28.8892 23.4679 29.5547 27.5013 26.7298C27.9807 26.3957 28.4281 26.0179 28.8378 25.6012C28.9872 25.4479 29.0786 25.2473 29.0962 25.034C29.1138 24.8206 29.0565 24.6078 28.9343 24.4321C28.6023 24.0126 28.1401 23.7154 27.6207 23.5873C27.9118 22.867 28.0461 22.093 28.0145 21.3167C27.9829 20.5405 27.7862 19.7799 27.4375 19.0857C27.0889 18.3914 26.5962 17.7795 25.9924 17.2906C25.3886 16.8018 24.6875 16.4473 23.9359 16.2507C23.1843 16.0542 22.3994 16.0201 21.6336 16.1508C20.8678 16.2815 20.1386 16.5739 19.4947 17.0086C18.8508 17.4432 18.307 18.0102 17.8994 18.6716C17.4919 19.333 17.23 20.0737 17.1313 20.8443C16.4344 20.9308 15.7849 21.2426 15.2814 21.7321C14.7779 22.2216 14.448 22.8621 14.3418 23.5562L14.3438 23.5568Z" stroke="#45413C" stroke-width="1.25" stroke-linecap="round" stroke-linejoin="round"/>
<path d="M27.7806 43.8842C27.6231 44.4135 27.9245 44.9703 28.4538 45.1279C28.9832 45.2854 29.54 44.984 29.6975 44.4547C29.8551 43.9253 29.5537 43.3685 29.0243 43.211C28.495 43.0534 27.9382 43.3548 27.7806 43.8842Z" fill="#FFBE3D"/>
<path d="M31.2265 42.823C31.069 43.3524 31.3704 43.9092 31.8997 44.0667C32.429 44.2243 32.9859 43.9229 33.1434 43.3935C33.3009 42.8642 32.9995 42.3073 32.4702 42.1498C31.9409 41.9923 31.384 42.2937 31.2265 42.823Z" fill="#FFBE3D"/>
<path d="M27.9632 39.7651C27.8056 40.2945 28.1071 40.8513 28.6364 41.0088C29.1657 41.1664 29.7226 40.865 29.8801 40.3356C30.0376 39.8063 29.7362 39.2495 29.2069 39.0919C28.6776 38.9344 28.1207 39.2358 27.9632 39.7651Z" fill="#FFBE3D"/>
</svg>
